<svg version="1" xmlns="http://www.w3.org/2000/svg" width="341.333" height="341.333" viewBox="0 0 256.000000 256.000000"><path d="M1.2 1.2c-1.7 1.7-1.7 251.9 0 253.6 1.7 1.7 251.9 1.7 253.6 0 1.7-1.7 1.7-251.9 0-253.6C253.1-.5 2.9-.5 1.2 1.2zM142 66.3c3.2 1.7 3.3 1.5-3.7 36.2-5.3 25.8-5.7 29.1-5.7 42-.1 16.1.3 18.2 4.5 23 5.6 6.4 14.3 6.8 20.5 1l3.4-3.2v3.2c0 2.3-1.1 4.5-4 7.8-5.3 6-10.9 8.1-19.3 7.5-12.8-1.1-19.8-7.4-22.6-20.6-2.4-11.2-1.1-24.6 5.1-53.2 3.8-17.9 4.7-23.1 4.1-24.8-1.2-2.9-4.6 2.4-16.8 26.5-6.3 12.6-7 15.3-4.1 15.3.7 0 2.5.9 4 2.1 2.1 1.7 2.6 2.9 2.6 6.8s-.5 5.2-2.7 7.3c-2.9 2.7-6.5 4.8-8.1 4.8-.5 0-1.3-1.5-1.6-3.3-.7-3.8-4.7-8-8.9-9.6-7.3-2.8-17 0-24 6.7-5.2 5-6.7 8.2-6.7 14 0 3.9.5 5.3 2.4 7.1 5 4.7 9 1.5 18.6-14.5 3.5-6 6.5-11 6.6-11.2.5-.8 4.4 2 5.4 3.8 1.2 2.3-2.1 9.6-10.2 22.2-8.3 13-15.1 17.8-25.3 17.8-10.6 0-15.2-5.3-14.2-16.2 1.6-18.2 20.6-35.1 43.5-38.9l6.7-1.1 5.8-12.2c8.5-18 18.6-35.3 23.4-40.2 5.9-6.2 15.7-8.9 21.3-6.1zm58.4 36.5c.7 2.1-2.1 12.8-5.8 22.5-1.4 3.7-2.6 7.7-2.6 8.8 0 2.5 2.5 3.5 5.6 2 2.4-1.1 2.4-1.1 1 1.8-2.6 4.9-10.2 8.5-13.1 6.1-2.3-1.9-1.8-8.6 1.1-16.5 5.5-15 5.6-16.1.9-13.1-5.1 3.4-10.2 11.3-13.4 20.9-3.8 11.4-5 13.2-7.9 12.3-3.1-1-2.8-3.6 1.8-17.2 5.5-16.3 5.3-19.4-1.1-15.1-7 4.7-12.4 15.5-16.4 33.2-2.4 10.9-3.7 12.3-7.6 8.4-1.9-1.9-2.1-2.9-1.6-7.8 1.3-11.9 12.4-39.7 18.1-45 3.4-3.2 6.1-2.2 5.2 1.9-.3 1.7-.4 3-.2 3s2.7-1.6 5.6-3.5c2.9-1.9 6-3.5 7-3.5 2.3 0 4.2 2.3 4.4 5.5.1 3.2 1.6 3.2 4.7-.1 5.1-5.5 13.2-8.1 14.3-4.6z"/></svg>