<svg height="512pt" viewBox="0 0 512 512" width="512pt" xmlns="http://www.w3.org/2000/svg"><path d="m110.933594 273.066406c-18.824219 0-34.132813-15.308594-34.132813-34.132812 0-18.824219 15.308594-34.132813 34.132813-34.132813 18.824218 0 34.132812 15.308594 34.132812 34.132813 0 18.824218-15.308594 34.132812-34.132812 34.132812zm0-51.199218c-9.414063 0-17.066406 7.652343-17.066406 17.066406 0 9.410156 7.652343 17.066406 17.066406 17.066406 9.410156 0 17.066406-7.65625 17.066406-17.066406 0-9.414063-7.65625-17.066406-17.066406-17.066406zm0 0"/><path d="m145.066406 102.398438h-34.132812c-4.710938 0-8.535156-3.8125-8.535156-8.53125v-34.132813c0-4.71875 3.824218-8.535156 8.535156-8.535156h34.132812c4.710938 0 8.535156 3.816406 8.535156 8.535156v34.132813c0 4.71875-3.824218 8.53125-8.535156 8.53125zm-25.601562-17.066407h17.070312v-17.066406h-17.070312zm0 0"/><path d="m281.601562 136.535156h-34.136718c-4.707032 0-8.53125-3.816406-8.53125-8.535156v-34.132812c0-4.71875 3.824218-8.535157 8.53125-8.535157h34.136718c4.707032 0 8.53125 3.816407 8.53125 8.535157v34.132812c0 4.71875-3.824218 8.535156-8.53125 8.535156zm-25.601562-17.070312h17.066406v-17.066406h-17.066406zm0 0"/><path d="m170.667969 187.734375c-4.710938 0-8.535157-3.816406-8.535157-8.535156 0-14.113281 11.488282-25.597657 25.601563-25.597657 4.710937 0 8.53125 3.8125 8.53125 8.53125s-3.820313 8.535157-8.53125 8.535157-8.535156 3.820312-8.535156 8.53125c0 4.71875-3.820313 8.535156-8.53125 8.535156zm0 0"/><path d="m204.800781 119.464844c-4.710937 0-8.535156-3.8125-8.535156-8.53125 0-4.710938-3.820313-8.535156-8.53125-8.535156s-8.535156-3.8125-8.535156-8.53125 3.824219-8.535157 8.535156-8.535157c14.113281 0 25.597656 11.488281 25.597656 25.601563 0 4.71875-3.820312 8.53125-8.53125 8.53125zm0 0"/><path d="m85.332031 153.601562c-4.710937 0-8.53125-3.816406-8.53125-8.535156 0-4.710937-3.824219-8.53125-8.535156-8.53125s-8.53125-3.816406-8.53125-8.535156 3.820313-8.535156 8.53125-8.535156c14.113281 0 25.601563 11.488281 25.601563 25.601562 0 4.71875-3.824219 8.535156-8.535157 8.535156zm0 0"/><path d="m315.734375 469.332031c-18.824219 0-34.132813-15.308593-34.132813-34.132812s15.308594-34.132813 34.132813-34.132813 34.132813 15.308594 34.132813 34.132813-15.308594 34.132812-34.132813 34.132812zm0-51.199219c-9.414063 0-17.066406 7.65625-17.066406 17.066407 0 9.414062 7.652343 17.066406 17.066406 17.066406 9.410156 0 17.066406-7.652344 17.066406-17.066406 0-9.410157-7.65625-17.066407-17.066406-17.066407zm0 0"/><path d="m256 324.265625c-18.824219 0-34.132812-15.308594-34.132812-34.132813 0-18.824218 15.308593-34.132812 34.132812-34.132812s34.132812 15.308594 34.132812 34.132812c0 18.824219-15.308593 34.132813-34.132812 34.132813zm0-51.199219c-9.414062 0-17.066406 7.65625-17.066406 17.066406 0 9.414063 7.652344 17.066407 17.066406 17.066407s17.066406-7.652344 17.066406-17.066407c0-9.410156-7.652344-17.066406-17.066406-17.066406zm0 0"/><path d="m375.464844 341.332031h-34.132813c-4.710937 0-8.53125-3.8125-8.53125-8.53125v-34.132812c0-4.71875 3.820313-8.535157 8.53125-8.535157h34.132813c4.710937 0 8.535156 3.816407 8.535156 8.535157v34.132812c0 4.71875-3.824219 8.53125-8.535156 8.53125zm-25.597656-17.066406h17.066406v-17.066406h-17.066406zm0 0"/><path d="m392.535156 443.734375c-4.710937 0-8.535156-3.816406-8.535156-8.535156 0-14.113281 11.484375-25.597657 25.601562-25.597657 4.707032 0 8.53125 3.8125 8.53125 8.53125s-3.824218 8.535157-8.53125 8.535157c-4.710937 0-8.535156 3.820312-8.535156 8.53125 0 4.71875-3.824218 8.535156-8.53125 8.535156zm0 0"/><path d="m435.199219 375.464844c-4.710938 0-8.53125-3.8125-8.53125-8.53125 0-4.710938-3.824219-8.535156-8.535157-8.535156-4.710937 0-8.53125-3.8125-8.53125-8.53125s3.820313-8.535157 8.53125-8.535157c14.113282 0 25.601563 11.488281 25.601563 25.601563 0 4.71875-3.824219 8.53125-8.535156 8.53125zm0 0"/><path d="m332.800781 256c-4.710937 0-8.535156-3.8125-8.535156-8.535156 0-4.707032-3.820313-8.53125-8.53125-8.53125s-8.535156-3.816406-8.535156-8.535156 3.824219-8.53125 8.535156-8.53125c14.113281 0 25.597656 11.484374 25.597656 25.597656 0 4.722656-3.820312 8.535156-8.53125 8.535156zm0 0"/><path d="m247.464844 401.066406c-4.707032 0-8.53125-3.8125-8.53125-8.53125 0-4.710937-3.824219-8.535156-8.535156-8.535156-4.707032 0-8.53125-3.8125-8.53125-8.535156 0-4.71875 3.824218-8.53125 8.53125-8.53125 14.117187 0 25.601562 11.484375 25.601562 25.601562 0 4.71875-3.824219 8.53125-8.535156 8.53125zm0 0"/><path d="m332.800781 512c-98.808593 0-179.199219-80.390625-179.199219-179.199219 0-98.808593 80.390626-179.199219 179.199219-179.199219 15.640625 0 31.589844 2.199219 47.402344 6.535157 2.429687.664062 4.4375 2.371093 5.496094 4.660156 1.058593 2.292969 1.039062 4.921875-.027344 7.199219-1.109375 2.367187-1.671875 4.789062-1.671875 7.203125 0 7.167969 4.597656 13.601562 11.453125 16.007812 3.480469 1.230469 5.785156 4.558594 5.691406 8.261719 0 .136719-.050781.957031-.0625 1.09375-.015625 27.636719 18.5625 51.429688 45.167969 58.109375 3.414062.855469 5.957031 3.722656 6.390625 7.21875 2.664063 21.265625 20.847656 37.308594 42.292969 37.308594 2.175781 0 4.285156-.222657 6.375-.527344 2.304687-.324219 4.640625.273437 6.484375 1.707031 1.835937 1.421875 3.011719 3.539063 3.25 5.859375.632812 6.195313.957031 12.441407.957031 18.5625 0 98.808594-80.390625 179.199219-179.199219 179.199219zm0-341.332031c-89.40625 0-162.132812 72.726562-162.132812 162.132812 0 89.402344 72.726562 162.132813 162.132812 162.132813 89.402344 0 162.132813-72.730469 162.132813-162.132813 0-2.816406-.078125-5.675781-.230469-8.535156-28.007813-.109375-51.992187-19.738281-58.011719-46.617187-30.0625-9.898438-51-37.230469-52.597656-68.941407-10.460938-6.007812-17.160156-17.21875-17.160156-29.507812 0-1.578125.109375-3.132813.332031-4.691407-11.554687-2.550781-23.109375-3.839843-34.464844-3.839843zm0 0"/><path d="m162.953125 357.582031c-.265625 0-.539063-.007812-.800781-.042969-92.445313-8.730468-162.152344-85.402343-162.152344-178.339843 0-98.808594 80.390625-179.199219 179.199219-179.199219 92.980469 0 169.652343 69.75 178.347656 162.246094.238281 2.542968-.675781 5.050781-2.484375 6.851562-1.808594 1.800782-4.332031 2.652344-6.859375 2.4375-5.929687-.59375-10.820313-.867187-15.402344-.867187-89.40625 0-162.132812 72.726562-162.132812 162.132812 0 4.8125.253906 9.863281.785156 15.453125.238281 2.535156-.667969 5.035156-2.46875 6.835938-1.601563 1.601562-3.777344 2.492187-6.03125 2.492187zm16.246094-340.515625c-89.402344 0-162.132813 72.730469-162.132813 162.132813 0 80.683593 58.070313 147.824219 136.671875 160.101562-.09375-2.21875-.136719-4.375-.136719-6.5 0-98.808593 80.390626-179.199219 179.199219-179.199219 2.097657 0 4.25.050782 6.492188.152344-12.261719-78.609375-79.382813-136.6875-160.09375-136.6875zm0 0"/></svg>